<svg width="330" height="32" viewBox="0 0 330 32" fill="none" xmlns="http://www.w3.org/2000/svg">
<path d="M4.37722e-06 5.328V31.228H5.957C9.99 31.228 11.877 29.045 11.877 25.16V22.977C11.877 20.128 10.915 18.13 8.399 17.427C10.656 16.724 11.433 15.022 11.433 12.284V11.063C11.433 7.252 9.84201 5.328 5.809 5.328H4.37722e-06ZM2.886 16.317V7.955H5.735C7.807 7.955 8.584 9.065 8.584 11.359V12.876C8.584 15.577 7.4 16.317 5.106 16.317H2.886ZM2.886 28.601V18.944H5.402C7.88101 18.944 9.028 19.906 9.028 22.792V25.086C9.028 27.491 8.066 28.601 5.957 28.601H2.886ZM17.3753 15.54V5.328H14.4893V31.228H20.1503C24.1833 31.228 25.9593 28.823 25.9593 24.901V21.793C25.9593 17.686 24.0353 15.54 19.9283 15.54H17.3753ZM28.3643 5.328V31.228H31.2133V5.328H28.3643ZM17.3753 28.601V18.13H19.9283C22.0743 18.13 23.1103 19.092 23.1103 21.608V25.049C23.1103 27.417 22.2593 28.601 20.1503 28.601H17.3753ZM37.0676 16.021V7.955H45.1336V5.328H34.2186V31.228H40.2496C44.3196 31.228 46.2066 28.971 46.2066 24.938V22.089C46.2066 17.945 44.1346 16.021 40.1016 16.021H37.0676ZM37.0676 28.601V18.611H40.1016C42.2106 18.611 43.3206 19.388 43.3206 21.904V25.123C43.3206 27.528 42.3586 28.601 40.2496 28.601H37.0676ZM51.9182 16.798V7.955H59.6882V5.328H49.0322V31.228H59.6882V28.601H51.9182V19.388H58.2452V16.798H51.9182ZM62.3652 5.328V31.228H65.2512V21.016H67.8042C71.9112 21.016 73.8352 18.87 73.8352 14.763V11.655C73.8352 7.73299 72.0962 5.328 68.0262 5.328H62.3652ZM65.2512 18.426V7.955H68.0262C70.1352 7.955 70.9862 9.139 70.9862 11.507V14.948C70.9862 17.427 69.9502 18.426 67.8042 18.426H65.2512ZM85.7157 10.619V31.228H88.3057V5.328H85.0867L81.3127 16.465L78.6487 24.642V5.328H76.0957V31.228H79.0927L82.9407 19.203L85.7157 10.619ZM98.0804 31.228V7.955H102.853V5.328H90.4214V7.955H95.1944V31.228H98.0804ZM107.888 16.798V7.955H115.658V5.328H105.002V31.228H115.658V28.601H107.888V19.388H114.215V16.798H107.888ZM141.692 31.228H144.652L138.769 16.243L144.504 5.328H141.618L135.365 17.242V5.328H132.516V17.242L126.3 5.328H123.414L129.186 16.317L123.266 31.228H126.226L131.184 18.981L132.516 21.46V31.228H135.365V21.46L136.734 19.018L141.692 31.228ZM149.657 16.798V7.955H157.427V5.328H146.771V31.228H157.427V28.601H149.657V19.388H155.984V16.798H149.657ZM170.575 7.955V31.228H173.461V5.328H162.916L162.213 24.938C162.139 27.417 161.732 28.638 159.327 28.638V31.265H159.808C163.767 31.228 164.877 28.897 165.025 24.79L165.617 7.955H170.575ZM186.017 26.011L187.016 31.228H189.902L184.944 5.328H180.763L175.805 31.228H178.469L179.468 26.011H186.017ZM182.687 8.584L185.61 23.532H179.838L182.687 8.584ZM195.04 16.798V7.955H202.81V5.328H192.154V31.228H202.81V28.601H195.04V19.388H201.367V16.798H195.04ZM219.14 10.397V31.228H221.878V5.328H217.845L213.738 26.011L209.483 5.328H205.45V31.228H207.966V10.582L212.258 31.191H215.033L219.14 10.397ZM227.74 15.54V5.328H224.854V31.228H230.515C234.548 31.228 236.324 28.823 236.324 24.901V21.793C236.324 17.686 234.4 15.54 230.293 15.54H227.74ZM238.729 5.328V31.228H241.578V5.328H238.729ZM227.74 28.601V18.13H230.293C232.439 18.13 233.475 19.092 233.475 21.608V25.049C233.475 27.417 232.624 28.601 230.515 28.601H227.74ZM253.02 -4.70877e-06C252.909 1.40599 252.021 1.887 250.8 1.887C249.579 1.887 248.728 1.40599 248.617 -4.70877e-06H246.804C246.878 2.25699 248.321 3.62599 250.8 3.62599C253.279 3.62599 254.796 2.25699 254.796 -4.70877e-06H253.02ZM254.167 10.619V31.228H256.757V5.328H253.538L249.542 17.057L247.1 24.642V5.328H244.547V31.228H247.544L251.466 18.981L254.167 10.619ZM270.944 5.069C266.985 5.069 265.172 7.659 265.172 11.581V13.505H267.836V11.433C267.836 9.10199 268.798 7.696 270.87 7.696C272.942 7.696 273.904 9.10199 273.904 11.433V16.539H269.39V19.129H273.904V25.123C273.904 27.454 272.942 28.86 270.87 28.86C268.798 28.86 267.836 27.454 267.836 25.123V22.163H265.135V24.975C265.135 28.897 266.985 31.487 270.944 31.487C274.903 31.487 276.753 28.897 276.753 24.975V11.581C276.753 7.659 274.903 5.069 270.944 5.069ZM286.368 31.228V7.955H291.141V5.328H278.709V7.955H283.482V31.228H286.368ZM302.762 26.011L303.761 31.228H306.647L301.689 5.328H297.508L292.55 31.228H295.214L296.213 26.011H302.762ZM299.432 8.584L302.355 23.532H296.583L299.432 8.584ZM326.511 31.228H329.471L323.588 16.243L329.323 5.328H326.437L320.184 17.242V5.328H317.335V17.242L311.119 5.328H308.233L314.005 16.317L308.085 31.228H311.045L316.003 18.981L317.335 21.46V31.228H320.184V21.46L321.553 19.018L326.511 31.228Z" fill="#635854"/>
</svg>
